<?xml version="1.0" encoding="utf-8"?>
<!-- Generator: Adobe Illustrator 23.0.1, SVG Export Plug-In . SVG Version: 6.00 Build 0)  -->
<svg version="1.1" xmlns="http://www.w3.org/2000/svg" xmlns:xlink="http://www.w3.org/1999/xlink" x="0px" y="0px"
	 viewBox="0 0 3000 3000" style="enable-background:new 0 0 3000 3000;" xml:space="preserve">
<style type="text/css">
	.st0{display:none;}
	.st1{display:inline;}
	.st2{display:inline;fill:#FFFFFF;}
	.st3{font-family:'Gotham-Medium';}
	.st4{font-size:807.7686px;}
	.st5{display:inline;fill:#00FFFF;}
	.st6{display:inline;stroke:#000000;stroke-miterlimit:10;}
	.st7{fill:#00FF00;}
	.st8{fill:url(#SVGID_1_);}
	.st9{fill:url(#SVGID_2_);}
	.st10{fill:url(#SVGID_3_);}
	.st11{fill:url(#SVGID_4_);}
	.st12{fill:url(#SVGID_5_);}
	.st13{fill:url(#SVGID_6_);}
	.st14{fill:url(#SVGID_7_);}
</style>
<g id="Layer_2" class="st0">
	<g class="st1">
		<rect x="0.5" y="0.5" width="2999" height="2999"/>
		<path d="M2999,1v2998H1V1H2999 M3000,0H0v3000h3000V0L3000,0z"/>
	</g>
</g>
<g id="Layer_5" class="st0">
	<text transform="matrix(1 0 0 1 59.5952 1677.5957)" class="st2 st3 st4">LEARN</text>
	<path class="st5" d="M2020.39,1203.25h-189.12c-11.05,0-20-8.95-20-20v-70.48h209.12V1203.25z"/>
	<rect x="1806.15" y="1204.14" class="st6" width="105.58" height="186.57"/>
	<polygon class="st1" points="1420.6,1222.72 1334.94,1416.17 1230.53,1677.73 1608,1677.73 	"/>
</g>
<g id="Layer_1">
	<g>
		<g>
			<path class="st7" d="M2167.88,894.62c23.61,0,46.62,4.48,68.4,13.31c22.55,9.14,42.78,22.58,60.13,39.93l590.11,590.11
				c17.89,17.89,31.6,38.81,40.75,62.18c8.83,22.57,13.02,46.36,12.44,70.7l0,0.07l0,0.07c0.58,24.34-3.61,48.13-12.44,70.7
				c-9.14,23.37-22.85,44.29-40.75,62.18L2296.41,2394c-17.35,17.35-37.58,30.79-60.13,39.93c-21.78,8.83-44.79,13.31-68.4,13.31
				s-46.62-4.48-68.4-13.31c-22.55-9.14-42.78-22.58-60.13-39.93c-17.35-17.35-30.79-37.58-39.93-60.13
				c-8.83-21.78-13.31-44.79-13.31-68.4s4.48-46.62,13.31-68.4c9.14-22.55,22.58-42.78,39.93-60.13l463.89-463.89l2.12-2.12
				l-2.12-2.12l-463.89-463.89c-17.35-17.35-30.79-37.58-39.93-60.13c-8.83-21.78-13.31-44.79-13.31-68.4s4.48-46.62,13.31-68.4
				c9.14-22.55,22.58-42.78,39.93-60.13c17.35-17.35,37.58-30.79,60.13-39.93C2121.26,899.1,2144.27,894.62,2167.88,894.62
				 M2167.88,891.62c-47.29,0-94.57,18.04-130.65,54.12l0,0c-72.16,72.16-72.16,189.15,0,261.31l463.89,463.89l-463.89,463.89
				c-72.16,72.16-72.16,189.15,0,261.3l0,0c36.08,36.08,83.37,54.12,130.65,54.12c47.29,0,94.57-18.04,130.65-54.12l590.11-590.11
				c37.2-37.2,55.23-86.33,54.07-135.08c1.16-48.75-16.86-97.87-54.07-135.08l-590.11-590.11
				C2262.46,909.66,2215.17,891.62,2167.88,891.62L2167.88,891.62z"/>
		</g>
		<g>
			<path class="st7" d="M869.34,902.63c23.61,0,46.62,4.48,68.4,13.31c22.55,9.14,42.78,22.58,60.13,39.93
				c17.35,17.35,30.79,37.58,39.93,60.13c8.83,21.78,13.31,44.79,13.31,68.4c0,23.61-4.48,46.62-13.31,68.4
				c-9.14,22.55-22.58,42.78-39.93,60.13l-456.96,456.96l-2.12,2.12l2.12,2.12l456.96,456.96c17.35,17.35,30.79,37.58,39.93,60.13
				c8.83,21.78,13.31,44.79,13.31,68.4s-4.48,46.62-13.31,68.4c-9.14,22.55-22.58,42.78-39.93,60.13
				c-17.35,17.35-37.58,30.79-60.13,39.93c-21.78,8.83-44.79,13.31-68.4,13.31c-23.61,0-46.62-4.48-68.4-13.31
				c-22.55-9.14-42.78-22.58-60.13-39.93l-562.07-562.07l-0.21-0.21l-0.24-0.16c-9.88-6.61-19.16-14.24-27.59-22.67
				c-17.66-17.66-31.25-38.28-40.39-61.29c-8.83-22.23-13.14-45.68-12.82-69.71l0-0.04l0-0.04c-0.32-24.03,3.99-47.48,12.82-69.71
				c9.14-23.01,22.73-43.63,40.39-61.29c8.43-8.43,17.71-16.06,27.59-22.67l0.24-0.16l0.21-0.21l562.07-562.07
				c17.35-17.35,37.58-30.79,60.13-39.93C822.71,907.11,845.73,902.63,869.34,902.63 M869.34,899.63
				c-47.29,0-94.57,18.04-130.65,54.12l-562.07,562.07c-9.9,6.62-19.3,14.3-28.05,23.04l0,0c-36.72,36.72-54.74,85.04-54.09,133.16
				c-0.65,48.12,17.37,96.44,54.09,133.16l0,0c8.74,8.74,18.15,16.42,28.05,23.04l562.07,562.07
				c36.08,36.08,83.37,54.12,130.65,54.12c47.29,0,94.57-18.04,130.65-54.12l0,0c72.16-72.16,72.16-189.15,0-261.3l-456.96-456.96
				l456.96-456.96c72.16-72.16,72.16-189.15,0-261.31h0C963.91,917.67,916.62,899.63,869.34,899.63L869.34,899.63z"/>
		</g>
		<g>
			<path class="st7" d="M1709.52,761.76v3c16.83,0,33.65,2.37,49.99,7.03c23.6,6.74,45.17,17.89,64.11,33.16
				c18.3,14.74,33.4,32.68,44.87,53.32c11.47,20.64,18.74,42.93,21.6,66.25c2.96,24.15,1.05,48.36-5.69,71.96l-408.22,1430
				c-11.06,38.76-33.97,71.92-66.23,95.91c-15.52,11.54-32.68,20.5-51.01,26.63c-18.6,6.23-37.93,9.38-57.46,9.38
				c-16.83,0-33.65-2.37-49.99-7.03c-23.6-6.74-45.17-17.89-64.11-33.16c-18.3-14.75-33.4-32.68-44.87-53.32
				s-18.74-42.93-21.6-66.25c-2.96-24.15-1.05-48.36,5.69-71.96l408.22-1430c11.06-38.76,33.97-71.92,66.23-95.91
				c15.52-11.54,32.68-20.5,51.01-26.63c18.59-6.23,37.93-9.38,57.46-9.38V761.76 M1709.52,761.76
				c-80.42,0-154.41,52.92-177.58,134.1l-408.22,1430c-28.01,98.13,28.83,200.38,126.95,228.39h0c16.95,4.84,34.02,7.15,50.81,7.15
				c80.42,0,154.41-52.92,177.58-134.1l408.22-1430c28.01-98.13-28.83-200.38-126.95-228.39l0,0
				C1743.38,764.06,1726.31,761.76,1709.52,761.76L1709.52,761.76z"/>
		</g>
		<g>
			<linearGradient id="SVGID_1_" gradientUnits="userSpaceOnUse" x1="1959.0311" y1="1494.3456" x2="2918.6875" y2="1494.3456">
				<stop  offset="0" style="stop-color:#E6FA44"/>
				<stop  offset="1" style="stop-color:#69ED5A"/>
			</linearGradient>
			<path class="st8" d="M2864.57,1359.27l-590.12-590.11c-72.16-72.16-189.15-72.16-261.31,0l0,0
				c-72.16,72.16-72.16,189.15,0,261.31l463.89,463.89l-463.89,463.89c-72.16,72.16-72.16,189.15,0,261.31l0,0
				c72.16,72.16,189.15,72.16,261.31,0l590.12-590.11c37.2-37.2,55.23-86.33,54.06-135.08
				C2919.8,1445.59,2901.77,1396.47,2864.57,1359.27z"/>
		</g>
		<g>
			<linearGradient id="SVGID_2_" gradientUnits="userSpaceOnUse" x1="70.3851" y1="1483.3849" x2="1030.0287" y2="1483.3849">
				<stop  offset="0" style="stop-color:#E6FA44"/>
				<stop  offset="1" style="stop-color:#69ED5A"/>
			</linearGradient>
			<path class="st9" d="M518.95,1483.38l456.96-456.96c72.16-72.16,72.16-189.15,0-261.31l0,0c-72.16-72.16-189.15-72.16-261.31,0
				l-562.07,562.07c-9.9,6.62-19.3,14.3-28.05,23.04l0,0c-36.72,36.72-54.74,85.04-54.09,133.16
				c-0.65,48.12,17.37,96.44,54.09,133.16l0,0c8.74,8.74,18.15,16.42,28.05,23.04l562.07,562.07c72.16,72.16,189.15,72.16,261.31,0
				l0,0c72.16-72.16,72.16-189.15,0-261.31L518.95,1483.38z"/>
		</g>
		<g>
			
				<linearGradient id="SVGID_3_" gradientUnits="userSpaceOnUse" x1="-61.107" y1="1486.7706" x2="1359.5027" y2="1486.7706" gradientTransform="matrix(-0.4858 -0.874 0.874 -0.4858 497.3265 2774.7493)">
				<stop  offset="0" style="stop-color:#E6FA44"/>
				<stop  offset="0.4947" style="stop-color:#6DED59"/>
				<stop  offset="1" style="stop-color:#D5F847"/>
			</linearGradient>
			<path class="st10" d="M1099.77,2149.03l408.08-1429.51c28-98.09,130.22-154.91,228.31-126.91l0,0
				c98.09,28,154.91,130.22,126.91,228.31L1455,2250.44c-28,98.09-130.22,154.91-228.31,126.91l0,0
				C1128.59,2349.35,1071.77,2247.13,1099.77,2149.03z"/>
		</g>
	</g>
</g>
<g id="Layer_4" class="st0">
	<g class="st1">
		<g>
			
				<linearGradient id="SVGID_4_" gradientUnits="userSpaceOnUse" x1="1023.2122" y1="2077.8372" x2="2317.322" y2="2077.8372" gradientTransform="matrix(0.1774 1.3107 -1.1083 0.7217 3083.6704 -2189.3167)">
				<stop  offset="0" style="stop-color:#E6FA44"/>
				<stop  offset="0.4523" style="stop-color:#69ED5A"/>
				<stop  offset="0.9874" style="stop-color:#D9F946"/>
			</linearGradient>
			<path class="st11" d="M1721.35,690.79L876.99,2508.87c-56.18,120.96-201.15,174.11-323.8,118.7l0,0
				c-122.65-55.4-176.54-198.38-120.36-319.34l844.36-1818.08c56.18-120.96,201.15-174.11,323.8-118.7l0,0
				C1723.64,426.86,1777.53,569.83,1721.35,690.79z"/>
		</g>
		<g>
			
				<linearGradient id="SVGID_5_" gradientUnits="userSpaceOnUse" x1="1033.5469" y1="2059.0696" x2="2327.6567" y2="2059.0696" gradientTransform="matrix(-0.1774 1.3107 1.1083 0.7217 -61.7959 -2189.3167)">
				<stop  offset="0" style="stop-color:#E6FA44"/>
				<stop  offset="1" style="stop-color:#69ED5A"/>
			</linearGradient>
			<path class="st12" d="M1277.89,690.79l844.36,1818.08c56.18,120.96,201.15,174.11,323.8,118.7l0,0
				c122.65-55.4,176.54-198.38,120.36-319.34L1722.05,490.16c-56.18-120.96-201.15-174.11-323.8-118.7l0,0
				C1275.6,426.86,1221.71,569.83,1277.89,690.79z"/>
		</g>
		<g>
			<linearGradient id="SVGID_6_" gradientUnits="userSpaceOnUse" x1="411.5922" y1="1499.5327" x2="1837.6306" y2="1499.5327">
				<stop  offset="0" style="stop-color:#E6FA44"/>
				<stop  offset="0.4972" style="stop-color:#69ED5A"/>
				<stop  offset="0.9874" style="stop-color:#D9F946"/>
			</linearGradient>
			<path class="st13" d="M1373.64,2167.17H900.13V590.99c0-133.05-109.36-240.9-244.27-240.9h0c-134.9,0-244.27,107.86-244.27,240.9
				v1807.54c0,15.53,1.51,30.72,4.36,45.43c17.57,116.03,119.03,205.02,241.57,205.02h1180.12v-24.21
				C1837.63,2372.05,1629.9,2167.17,1373.64,2167.17z"/>
		</g>
		<linearGradient id="SVGID_7_" gradientUnits="userSpaceOnUse" x1="1367.5343" y1="1724.6908" x2="1634.1368" y2="1724.6908">
			<stop  offset="0" style="stop-color:#E6FA44"/>
			<stop  offset="0" style="stop-color:#69ED5A"/>
			<stop  offset="0.9874" style="stop-color:#D9F946"/>
		</linearGradient>
		<ellipse class="st14" cx="1500.84" cy="1724.69" rx="133.3" ry="124.73"/>
	</g>
</g>
</svg>
