<svg width="51" height="51" viewBox="0 0 51 51" fill="none" xmlns="http://www.w3.org/2000/svg">
<circle cx="25.5" cy="25.5" r="25.5" fill="url(#paint0_linear_17_214)"/>
<path d="M36.905 15.9951C34.91 15.0651 32.75 14.3901 30.5 14.0001C30.4803 13.9994 30.4606 14.0031 30.4425 14.0109C30.4244 14.0187 30.4081 14.0303 30.395 14.0451C30.125 14.5401 29.81 15.1851 29.6 15.6801C27.2135 15.3201 24.7865 15.3201 22.4 15.6801C22.19 15.1701 21.875 14.5401 21.59 14.0451C21.575 14.0151 21.53 14.0001 21.485 14.0001C19.235 14.3901 17.09 15.0651 15.08 15.9951C15.065 15.9951 15.05 16.0101 15.035 16.0251C10.955 22.1301 9.83 28.0701 10.385 33.9501C10.385 33.9801 10.4 34.0101 10.43 34.0251C13.13 36.0051 15.725 37.2051 18.29 38.0001C18.335 38.0151 18.38 38.0001 18.395 37.9701C18.995 37.1451 19.535 36.2751 20 35.3601C20.03 35.3001 20 35.2401 19.94 35.2251C19.085 34.8951 18.275 34.5051 17.48 34.0551C17.42 34.0251 17.42 33.9351 17.465 33.8901C17.63 33.7701 17.795 33.6351 17.96 33.5151C17.99 33.4851 18.035 33.4851 18.065 33.5001C23.225 35.8551 28.79 35.8551 33.89 33.5001C33.92 33.4851 33.965 33.4851 33.995 33.5151C34.16 33.6501 34.325 33.7701 34.49 33.9051C34.55 33.9501 34.55 34.0401 34.475 34.0701C33.695 34.5351 32.87 34.9101 32.015 35.2401C31.955 35.2551 31.94 35.3301 31.955 35.3751C32.435 36.2901 32.975 37.1601 33.56 37.9851C33.605 38.0001 33.65 38.0151 33.695 38.0001C36.275 37.2051 38.87 36.0051 41.57 34.0251C41.6 34.0101 41.615 33.9801 41.615 33.9501C42.275 27.1551 40.52 21.2601 36.965 16.0251C36.95 16.0101 36.935 15.9951 36.905 15.9951ZM20.78 30.3651C19.235 30.3651 17.945 28.9401 17.945 27.1851C17.945 25.4301 19.205 24.0051 20.78 24.0051C22.37 24.0051 23.63 25.4451 23.615 27.1851C23.615 28.9401 22.355 30.3651 20.78 30.3651ZM31.235 30.3651C29.69 30.3651 28.4 28.9401 28.4 27.1851C28.4 25.4301 29.66 24.0051 31.235 24.0051C32.825 24.0051 34.085 25.4451 34.07 27.1851C34.07 28.9401 32.825 30.3651 31.235 30.3651Z" fill="#252525"/>
<defs>
<linearGradient id="paint0_linear_17_214" x1="25.5" y1="0" x2="25.5" y2="51" gradientUnits="userSpaceOnUse">
<stop stop-color="#80F057"/>
<stop offset="1" stop-color="#CFF747"/>
</linearGradient>
</defs>
</svg>
