<svg width="51" height="51" viewBox="0 0 51 51" fill="none" xmlns="http://www.w3.org/2000/svg">
<circle cx="25.5" cy="25.5" r="25.5" fill="url(#paint0_linear_17_202)"/>
<path d="M25 41C22.95 41 21.0125 40.606 19.1875 39.818C17.3625 39.031 15.769 37.956 14.407 36.593C13.044 35.231 11.969 33.6375 11.182 31.8125C10.394 29.9875 10 28.05 10 26C10 23.925 10.394 21.9815 11.182 20.1695C11.969 18.3565 13.044 16.769 14.407 15.407C15.769 14.044 17.3625 12.9685 19.1875 12.1805C21.0125 11.3935 22.95 11 25 11C27.075 11 29.0185 11.3935 30.8305 12.1805C32.6435 12.9685 34.231 14.044 35.593 15.407C36.956 16.769 38.031 18.3565 38.818 20.1695C39.606 21.9815 40 23.925 40 26V28.175C40 29.65 39.494 30.906 38.482 31.943C37.469 32.981 36.225 33.5 34.75 33.5C33.85 33.5 33.0125 33.3 32.2375 32.9C31.4625 32.5 30.825 31.975 30.325 31.325C29.65 32 28.8565 32.5315 27.9445 32.9195C27.0315 33.3065 26.05 33.5 25 33.5C22.925 33.5 21.1565 32.7685 19.6945 31.3055C18.2315 29.8435 17.5 28.075 17.5 26C17.5 23.925 18.2315 22.156 19.6945 20.693C21.1565 19.231 22.925 18.5 25 18.5C27.075 18.5 28.844 19.231 30.307 20.693C31.769 22.156 32.5 23.925 32.5 26V28.175C32.5 28.9 32.725 29.4685 33.175 29.8805C33.625 30.2935 34.15 30.5 34.75 30.5C35.35 30.5 35.875 30.2935 36.325 29.8805C36.775 29.4685 37 28.9 37 28.175V26C37 22.725 35.8185 19.906 33.4555 17.543C31.0935 15.181 28.275 14 25 14C21.725 14 18.906 15.181 16.543 17.543C14.181 19.906 13 22.725 13 26C13 29.275 14.181 32.0935 16.543 34.4555C18.906 36.8185 21.725 38 25 38H31C31.425 38 31.781 38.144 32.068 38.432C32.356 38.719 32.5 39.075 32.5 39.5C32.5 39.925 32.356 40.281 32.068 40.568C31.781 40.856 31.425 41 31 41H25ZM25 30.5C26.25 30.5 27.3125 30.0625 28.1875 29.1875C29.0625 28.3125 29.5 27.25 29.5 26C29.5 24.75 29.0625 23.6875 28.1875 22.8125C27.3125 21.9375 26.25 21.5 25 21.5C23.75 21.5 22.6875 21.9375 21.8125 22.8125C20.9375 23.6875 20.5 24.75 20.5 26C20.5 27.25 20.9375 28.3125 21.8125 29.1875C22.6875 30.0625 23.75 30.5 25 30.5Z" fill="#252525"/>
<defs>
<linearGradient id="paint0_linear_17_202" x1="25.5" y1="0" x2="25.5" y2="51" gradientUnits="userSpaceOnUse">
<stop stop-color="#80F057"/>
<stop offset="1" stop-color="#CFF747"/>
</linearGradient>
</defs>
</svg>
