<svg width="51" height="51" viewBox="0 0 51 51" fill="none" xmlns="http://www.w3.org/2000/svg">
<circle cx="25.5" cy="25.5" r="25.5" fill="url(#paint0_linear_17_188)"/>
<path d="M25 19.5312C23.7206 19.5312 22.4699 19.9106 21.4062 20.6214C20.3424 21.3322 19.5133 22.3425 19.0237 23.5245C18.534 24.7065 18.4059 26.0072 18.6555 27.262C18.9051 28.5168 19.5212 29.6694 20.4259 30.5741C21.3306 31.4788 22.4832 32.0949 23.738 32.3445C24.9928 32.5941 26.2935 32.466 27.4755 31.9763C28.6575 31.4867 29.6678 30.6576 30.3786 29.5938C31.0894 28.5301 31.4688 27.2794 31.4688 26C31.4688 24.2844 30.7872 22.639 29.5741 21.4259C28.361 20.2128 26.7156 19.5312 25 19.5312ZM25 29.0938C24.3881 29.0938 23.79 28.9123 23.2812 28.5724C22.7724 28.2324 22.3759 27.7492 22.1417 27.1839C21.9076 26.6186 21.8463 25.9966 21.9657 25.3964C22.0851 24.7963 22.3797 24.2451 22.8124 23.8124C23.2451 23.3797 23.7963 23.0851 24.3964 22.9657C24.9966 22.8463 25.6186 22.9076 26.1839 23.1417C26.7492 23.3759 27.2324 23.7724 27.5724 24.2812C27.9123 24.79 28.0938 25.3881 28.0938 26C28.0901 26.8194 27.7629 27.6041 27.1835 28.1835C26.6041 28.7629 25.8194 29.0901 25 29.0938ZM31.75 10.8125H18.25C16.0122 10.8125 13.8661 11.7014 12.2838 13.2838C10.7014 14.8661 9.8125 17.0122 9.8125 19.25V32.75C9.8125 34.9878 10.7014 37.1339 12.2838 38.7162C13.8661 40.2986 16.0122 41.1875 18.25 41.1875H31.75C33.9878 41.1875 36.1339 40.2986 37.7162 38.7162C39.2986 37.1339 40.1875 34.9878 40.1875 32.75V19.25C40.1875 17.0122 39.2986 14.8661 37.7162 13.2838C36.1339 11.7014 33.9878 10.8125 31.75 10.8125ZM36.8125 32.75C36.8125 34.0927 36.2791 35.3803 35.3297 36.3297C34.3803 37.2791 33.0927 37.8125 31.75 37.8125H18.25C16.9073 37.8125 15.6197 37.2791 14.6703 36.3297C13.7209 35.3803 13.1875 34.0927 13.1875 32.75V19.25C13.1875 17.9073 13.7209 16.6197 14.6703 15.6703C15.6197 14.7209 16.9073 14.1875 18.25 14.1875H31.75C33.0927 14.1875 34.3803 14.7209 35.3297 15.6703C36.2791 16.6197 36.8125 17.9073 36.8125 19.25V32.75ZM34.5625 18.6875C34.5625 19.1325 34.4305 19.5675 34.1833 19.9375C33.9361 20.3075 33.5847 20.5959 33.1735 20.7662C32.7624 20.9365 32.31 20.9811 31.8735 20.8943C31.4371 20.8075 31.0362 20.5932 30.7215 20.2785C30.4068 19.9638 30.1925 19.5629 30.1057 19.1265C30.0189 18.69 30.0635 18.2376 30.2338 17.8265C30.4041 17.4153 30.6925 17.0639 31.0625 16.8167C31.4325 16.5695 31.8675 16.4375 32.3125 16.4375C32.9092 16.4375 33.4815 16.6746 33.9035 17.0965C34.3254 17.5185 34.5625 18.0908 34.5625 18.6875Z" fill="#252525"/>
<defs>
<linearGradient id="paint0_linear_17_188" x1="25.5" y1="0" x2="25.5" y2="51" gradientUnits="userSpaceOnUse">
<stop stop-color="#80F057"/>
<stop offset="1" stop-color="#CFF747"/>
</linearGradient>
</defs>
</svg>
