<svg width="51" height="51" viewBox="0 0 51 51" fill="none" xmlns="http://www.w3.org/2000/svg">
<circle cx="25.5" cy="25.5" r="25.5" fill="url(#paint0_linear_17_212)"/>
<path d="M18.41 12.5C18.4096 13.2957 18.0932 14.0586 17.5303 14.6209C16.9674 15.1832 16.2041 15.4989 15.4085 15.4985C14.6129 15.4981 13.8499 15.1817 13.2876 14.6188C12.7253 14.0559 12.4096 13.2927 12.41 12.497C12.4104 11.7014 12.7269 10.9385 13.2897 10.3762C13.8526 9.81383 14.6159 9.49814 15.4115 9.49854C16.2071 9.49893 16.9701 9.81539 17.5324 10.3783C18.0947 10.9412 18.4104 11.7044 18.41 12.5ZM18.5 17.72H12.5V36.5H18.5V17.72ZM27.98 17.72H22.01V36.5H27.92V26.645C27.92 21.155 35.075 20.645 35.075 26.645V36.5H41V24.605C41 15.35 30.41 15.695 27.92 20.24L27.98 17.72Z" fill="#252525"/>
<defs>
<linearGradient id="paint0_linear_17_212" x1="25.5" y1="0" x2="25.5" y2="51" gradientUnits="userSpaceOnUse">
<stop stop-color="#80F057"/>
<stop offset="1" stop-color="#CFF747"/>
</linearGradient>
</defs>
</svg>
