<svg width="493" height="493" viewBox="0 0 493 493" fill="none" xmlns="http://www.w3.org/2000/svg">
<circle cx="246.5" cy="246.5" r="246.5" fill="url(#paint0_linear_1_4)"/>
<path d="M429.563 251.333C429.563 296.042 422.105 332.292 412.163 332.292C402.22 332.292 394.763 296.042 394.763 251.333C394.763 206.625 402.22 170.375 412.163 170.375C422.105 170.375 429.563 206.625 429.563 251.333ZM386.063 251.333C386.063 300.875 363.691 341.958 337.591 341.958C311.491 341.958 289.12 300.875 289.12 251.333C289.12 201.792 311.491 160.708 337.591 160.708C363.691 160.708 386.063 201.792 386.063 251.333ZM277.934 251.333C277.934 304.5 234.434 348 179.748 348C125.062 348 81.5625 304.5 81.5625 251.333C81.5625 198.167 125.062 154.667 179.748 154.667C234.434 154.667 277.934 198.167 277.934 251.333Z" fill="#252525"/>
<defs>
<linearGradient id="paint0_linear_1_4" x1="246.5" y1="0" x2="246.5" y2="493" gradientUnits="userSpaceOnUse">
<stop stop-color="#80F057"/>
<stop offset="1" stop-color="#CFF747"/>
</linearGradient>
</defs>
</svg>
