<svg width="51" height="51" viewBox="0 0 51 51" fill="none" xmlns="http://www.w3.org/2000/svg">
<circle cx="25.5" cy="25.5" r="25.5" fill="url(#paint0_linear_17_208)"/>
<g clip-path="url(#clip0_17_208)">
<path d="M40.9833 11.7969C41.0175 11.5908 40.9974 11.3793 40.9248 11.1834C40.8523 10.9874 40.7298 10.8138 40.5695 10.6798C40.4093 10.5457 40.2168 10.4558 40.0111 10.4189C39.8054 10.3821 39.5937 10.3996 39.3969 10.4697L5.79689 22.4697C5.57541 22.5487 5.38201 22.691 5.24073 22.879C5.09944 23.0669 5.01648 23.2922 5.00217 23.5269C4.98785 23.7616 5.0428 23.9954 5.16019 24.1991C5.27759 24.4028 5.45225 24.5676 5.66249 24.6729L15.2625 29.4729C15.4517 29.5676 15.6625 29.6106 15.8737 29.5975C16.0849 29.5845 16.2888 29.5158 16.4649 29.3985L24.4329 24.0849L19.6641 30.0513C19.5603 30.1812 19.4846 30.3312 19.4419 30.4918C19.3991 30.6525 19.3902 30.8202 19.4157 30.9845C19.4412 31.1488 19.5006 31.306 19.59 31.4461C19.6794 31.5862 19.797 31.7062 19.9353 31.7985L34.3353 41.3985C34.502 41.5094 34.6939 41.5768 34.8933 41.5945C35.0928 41.6122 35.2935 41.5798 35.4772 41.5001C35.6609 41.4204 35.8218 41.296 35.9451 41.1383C36.0684 40.9805 36.1503 40.7944 36.1833 40.5969L40.9833 11.7969Z" fill="#252525"/>
</g>
<defs>
<linearGradient id="paint0_linear_17_208" x1="25.5" y1="0" x2="25.5" y2="51" gradientUnits="userSpaceOnUse">
<stop stop-color="#80F057"/>
<stop offset="1" stop-color="#CFF747"/>
</linearGradient>
<clipPath id="clip0_17_208">
<rect width="36" height="36" fill="white" transform="translate(5 8)"/>
</clipPath>
</defs>
</svg>
