<svg width="51" height="51" viewBox="0 0 51 51" fill="none" xmlns="http://www.w3.org/2000/svg">
<circle cx="25.5" cy="25.5" r="25.5" fill="url(#paint0_linear_17_182)"/>
<path d="M19.3661 39.9375C31.8195 39.9375 38.6319 29.6188 38.6319 20.6861C38.6319 20.3973 38.6319 20.1045 38.6196 19.8157C39.9459 18.8556 41.0906 17.6669 42 16.3053C40.7611 16.8516 39.4482 17.2116 38.1039 17.3737C39.5199 16.5273 40.5804 15.1956 41.0884 13.6262C39.758 14.4143 38.302 14.9675 36.7839 15.2617C35.7634 14.1748 34.4129 13.4548 32.9417 13.2132C31.4705 12.9715 29.9606 13.2217 28.646 13.9251C27.3314 14.6284 26.2854 15.7456 25.6701 17.1037C25.0547 18.4617 24.9043 19.9847 25.2422 21.4368C22.5501 21.3019 19.9164 20.6025 17.512 19.3841C15.1076 18.1658 12.9862 16.4556 11.2853 14.3645C10.4218 15.8559 10.1582 17.62 10.5482 19.2986C10.9382 20.9772 11.9524 22.4444 13.3849 23.4024C12.3114 23.3659 11.2616 23.0777 10.32 22.5609V22.6537C10.3219 24.216 10.8631 25.7298 11.8522 26.9391C12.8413 28.1484 14.2176 28.9791 15.7485 29.2908C15.1674 29.4509 14.5672 29.5307 13.9644 29.528C13.5395 29.5293 13.1155 29.4899 12.6981 29.4105C13.1307 30.7553 13.9733 31.9312 15.1076 32.7733C16.2419 33.6155 17.6112 34.0817 19.0238 34.1068C16.6241 35.9915 13.66 37.0137 10.6087 37.0087C10.0711 37.011 9.53382 36.98 9 36.9159C12.0969 38.8903 15.6934 39.9386 19.3661 39.9375Z" fill="#252525"/>
<defs>
<linearGradient id="paint0_linear_17_182" x1="25.5" y1="0" x2="25.5" y2="51" gradientUnits="userSpaceOnUse">
<stop stop-color="#80F057"/>
<stop offset="1" stop-color="#CFF747"/>
</linearGradient>
</defs>
</svg>
