<svg width="51" height="51" viewBox="0 0 51 51" fill="none" xmlns="http://www.w3.org/2000/svg">
<circle cx="25.5" cy="25.5" r="25.5" fill="url(#paint0_linear_17_195)"/>
<path d="M22 30.5L29.785 26L22 21.5V30.5ZM39.34 18.755C39.535 19.46 39.67 20.405 39.76 21.605C39.865 22.805 39.91 23.84 39.91 24.74L40 26C40 29.285 39.76 31.7 39.34 33.245C38.965 34.595 38.095 35.465 36.745 35.84C36.04 36.035 34.75 36.17 32.77 36.26C30.82 36.365 29.035 36.41 27.385 36.41L25 36.5C18.715 36.5 14.8 36.26 13.255 35.84C11.905 35.465 11.035 34.595 10.66 33.245C10.465 32.54 10.33 31.595 10.24 30.395C10.135 29.195 10.09 28.16 10.09 27.26L10 26C10 22.715 10.24 20.3 10.66 18.755C11.035 17.405 11.905 16.535 13.255 16.16C13.96 15.965 15.25 15.83 17.23 15.74C19.18 15.635 20.965 15.59 22.615 15.59L25 15.5C31.285 15.5 35.2 15.74 36.745 16.16C38.095 16.535 38.965 17.405 39.34 18.755Z" fill="#252525"/>
<defs>
<linearGradient id="paint0_linear_17_195" x1="25.5" y1="0" x2="25.5" y2="51" gradientUnits="userSpaceOnUse">
<stop stop-color="#80F057"/>
<stop offset="1" stop-color="#CFF747"/>
</linearGradient>
</defs>
</svg>
